# xmcd
#
# Track frame offsets: 
#        187
#        12570
#        24812
#        37492
#        51450
#        69112
#        83167
#        93100
#        105250
#        118287
#        131965
#        143145
#        154367
#        167125
#        179620
#        190902
#        204502
#
# Disc length: 2890 seconds
#
# Revision: 0
# Processed by: cddbd v1.5.2PL0 Copyright (c) Steve Scherf et al.
# Submitted via: ExactAudioCopy v0.99pb5
#
DISCID=f20b4811
DTITLE=Hank Williams - Karaoke (with Japanese box set)
DYEAR=1995
DGENRE=Country
TTITLE0=YOUR CHEATIN' HEART
TTITLE1=COLD COLD HEART
TTITLE2=LOVESICK BLUES
TTITLE3=JAMBALAYA
TTITLE4=A MANSION ON THE HILL
TTITLE5=HEY GOOD LOOKIN'
TTITLE6=HONKY TONK BLUES
TTITLE7=SETTIN THE WOODS ON FIRE
TTITLE8=MOVE IT ON OVER
TTITLE9=I'M SO LONESOME I COULD CRY
TTITLE10=WHY DON'T YOU LOVE ME
TTITLE11=MOANIN' YHE BLUES
TTITLE12=HALF AS MUCH
TTITLE13=TAKE THESE CHAINS FROM MY HEART
TTITLE14=I CAN'T HELP IT
TTITLE15=THERE'S A TEAR IN MY BEAR
TTITLE16=I SAW THE LIGHT
EXTD=
EXTT0=
EXTT1=
EXTT2=
EXTT3=
EXTT4=
EXTT5=
EXTT6=
EXTT7=
EXTT8=
EXTT9=
EXTT10=
EXTT11=
EXTT12=
EXTT13=
EXTT14=
EXTT15=
EXTT16=
PLAYORDER=
